<?xml version="1.0" standalone="no"?>
<!DOCTYPE svg PUBLIC "-//W3C//DTD SVG 20010904//EN"
 "http://www.w3.org/TR/2001/REC-SVG-20010904/DTD/svg10.dtd">
<svg version="1.0" xmlns="http://www.w3.org/2000/svg"
 width="105.000000pt" height="105.000000pt" viewBox="0 0 105.000000 105.000000"
 preserveAspectRatio="xMidYMid meet">
<metadata>
Created by potrace 1.11, written by Peter Selinger 2001-2013
</metadata>
<g transform="translate(0.000000,105.000000) scale(0.100000,-0.100000)"
fill="#000000" stroke="none">
<path d="M608 1037 c-21 -5 -57 -26 -82 -48 l-44 -39 -37 21 c-99 59 -253 -19
-271 -136 -15 -103 33 -233 106 -283 22 -15 39 -30 40 -35 0 -4 -26 -5 -58 -3
-97 7 -156 -24 -187 -97 -19 -45 -13 -83 23 -156 23 -46 36 -60 81 -83 71 -37
139 -38 206 -3 l48 26 61 -59 c93 -90 139 -115 214 -118 34 -2 62 1 62 6 0 4
13 11 28 15 28 6 70 43 90 81 12 23 5 62 -23 121 -20 42 -58 53 -135 38 -30
-6 -42 -1 -90 34 -81 59 -98 79 -96 112 3 35 31 67 75 86 42 18 166 116 187
148 18 28 52 134 49 155 -2 8 -4 26 -6 40 -6 40 -62 141 -91 163 -29 22 -94
28 -150 14z"/>
</g>
</svg>
